{"title":"Liberal.Arts.2012.DVDRip.SweSub.Xvid","uid":8362460,"size":733927964,"categoryP":"video","categoryS":"movies","magnet":"?xt=urn:btih:d511f06fd73a7ecf9294d8bda88045a78c4828c4&amp;dn=Liberal.Arts.2012.DVDRip.SweSub.Xvid&amp;tr=udp%3A%2F%2Ftracker.openbittorrent.com%3A80&amp;tr=udp%3A%2F%2Fopen.demonii.com%3A1337&amp;tr=udp%3A%2F%2Ftracker.coppersurfer.tk%3A6969&amp;tr=udp%3A%2F%2Fexodus.desync.com%3A6969","seeders":1,"leechers":0,"uploader":"nordjok","files":-1,"time":1365670465,"description":"                     Swedish Hardsub\n\n  &lt;a href=&quot;\nhttp://www.imdb.com/title/tt1872818/&quot; rel=&quot;nofollow&quot; target=&quot;_NEW&quot;&gt;\nhttp://www.imdb.com/title/tt1872818/&lt;/a&gt;\n\n\n\nGeneral\nComplete name                       : Liberal.Arts.2012.DVDRip.SweSub.Xvid.avi\nFormat                              : AVI\nFormat/Info                         : Audio Video Interleave\nFile size                           : 700 MiB\nDuration                            : 1h 33mn\n\nVideo\nID                                  : 0\nFormat                              : MPEG-4 Visual\nFormat profile                      : Advanced Simple@L5\nFormat settings, BVOP               : 2\nFormat settings, QPel               : No\nFormat settings, GMC                : No warppoints\nFormat settings, Matrix             : Default (H.263)\nMuxing mode                         : Packed bitstream\nCodec ID                            : XVID\nCodec ID/Hint                       : XviD\nDuration                            : 1h 33mn\nBit rate                            : 905 Kbps\nWidth                               : 720 pixels\nHeight                              : 304 pixels\nDisplay aspect ratio                : 2.35:1\nFrame rate                          : 25.000 fps\nColor space                         : YUV\nChroma subsampling                  : 4:2:0\nBit depth                           : 8 bits\nScan type                           : Progressive\nCompression mode                    : Lossy\nBits/(Pixel*Frame)                  : 0.165\nStream size                         : 604 MiB (86%)\nWriting library                     : XviD 73\n\nAudio\nID                                  : 1\nFormat                              : MPEG Audio\nFormat version                      : Version 1\nFormat profile                      : Layer 3\nMode                                : Joint stereo\nMode extension                      : MS Stereo\nCodec ID                            : 55\nCodec ID/Hint                       : MP3\nDuration                            : 1h 33mn\nBit rate mode                       : Variable\nBit rate                            : 128 Kbps\nChannel(s)                          : 2 channels\nSampling rate                       : 48.0 KHz\nCompression mode                    : Lossy\nStream size                         : 87.3 MiB (12%)\nAlignment                           : Aligned on interleaves\nInterleave, duration                : 24 ms (0.60 video frame)\nInterleave, preload duration        : 140 ms\nWriting library                     : LAME3.90.\nEncoding settings                   : -m j -V 4 -q 2 -lowpass 17.6 --abr 128\n\n","torrent":{"xt":"urn:btih:d511f06fd73a7ecf9294d8bda88045a78c4828c4","amp;dn":"Liberal.Arts.2012.DVDRip.SweSub.Xvid","amp;tr":["udp%3A%2F%2Ftracker.openbittorrent.com%3A80","udp%3A%2F%2Fopen.demonii.com%3A1337","udp%3A%2F%2Ftracker.coppersurfer.tk%3A6969","udp%3A%2F%2Fexodus.desync.com%3A6969"],"infoHash":"d511f06fd73a7ecf9294d8bda88045a78c4828c4","infoHashBuffer":{"type":"Buffer","data":[213,17,240,111,215,58,126,207,146,148,216,189,168,128,69,167,140,72,40,196]},"announce":[],"urlList":[]}}